<?xml version="1.0" standalone="no"?><svg xmlns="http://www.w3.org/2000/svg" viewBox="0 0 1440 320"><path fill="#0099ff" fill-opacity="1" d="M0,96L15,133.3C30,171,60,245,90,245.3C120,245,150,171,180,165.3C210,160,240,224,270,208C300,192,330,96,360,69.3C390,43,420,85,450,117.3C480,149,510,171,540,170.7C570,171,600,149,630,144C660,139,690,149,720,154.7C750,160,780,160,810,149.3C840,139,870,117,900,133.3C930,149,960,203,990,218.7C1020,235,1050,213,1080,202.7C1110,192,1140,192,1170,176C1200,160,1230,128,1260,101.3C1290,75,1320,53,1350,53.3C1380,53,1410,75,1425,85.3L1440,96L1440,320L1425,320C1410,320,1380,320,1350,320C1320,320,1290,320,1260,320C1230,320,1200,320,1170,320C1140,320,1110,320,1080,320C1050,320,1020,320,990,320C960,320,930,320,900,320C870,320,840,320,810,320C780,320,750,320,720,320C690,320,660,320,630,320C600,320,570,320,540,320C510,320,480,320,450,320C420,320,390,320,360,320C330,320,300,320,270,320C240,320,210,320,180,320C150,320,120,320,90,320C60,320,30,320,15,320L0,320Z"></path></svg>